{"title":"Gangster Squad 2012 TS XviD Mp3 - ADTRG","uid":8064358,"size":1479059985,"categoryP":"video","categoryS":"movies","magnet":"?xt=urn:btih:e0f0bc604ec699b2b65b00027a543cc5c13850f2&amp;dn=Gangster+Squad+2012+TS+XviD+Mp3+-+ADTRG&amp;tr=udp%3A%2F%2Ftracker.openbittorrent.com%3A80&amp;tr=udp%3A%2F%2Fopen.demonii.com%3A1337&amp;tr=udp%3A%2F%2Ftracker.coppersurfer.tk%3A6969&amp;tr=udp%3A%2F%2Fexodus.desync.com%3A6969","seeders":6,"leechers":0,"uploader":"tykoon123","files":-1,"time":1359141978,"description":"Poster: &lt;a href=&quot;\nhttp://imgr.us/images/m4q138mta7uvv9gx3t6a.jpg&quot; rel=&quot;nofollow&quot; target=&quot;_NEW&quot;&gt;\nhttp://imgr.us/images/m4q138mta7uvv9gx3t6a.jpg&lt;/a&gt;\n\nInfo:\n\nFormat : AVI\nFormat/Info : Audio Video Interleave\nFile size : 1.33 GiB\nDuration : 1h 43mn\nOverall bit rate : 1 835 Kbps\nWriting library : VirtualDub build 33848/release\n\nVideo\nID : 0\nFormat : MPEG-4 Visual\nFormat profile : Advanced Simple@L5\nFormat settings, BVOP : 2\nFormat settings, QPel : No\nFormat settings, GMC : No warppoints\nFormat settings, Matrix : Default (H.263)\nMuxing mode : Packed bitstream\nCodec ID : XVID\nCodec ID/Hint : XviD\nDuration : 1h 43mn\nBit rate : 1 695 Kbps\nWidth : 720 pixels\nHeight : 352 pixels\nDisplay aspect ratio : 2.045\nFrame rate : 29.970 fps\nColor space : YUV\nChroma subsampling : 4:2:0\nBit depth : 8 bits\nScan type : Progressive\nCompression mode : Lossy\nBits/(Pixel*Frame) : 0.223\nStream size : 1.23 GiB (92%)\nWriting library : XviD 64\n\nAudio\nID : 1\nFormat : MPEG Audio\nFormat version : Version 1\nFormat profile : Layer 3\nMode : Joint stereo\nMode extension : MS Stereo\nCodec ID : 55\nCodec ID/Hint : MP3\nDuration : 1h 43mn\nBit rate mode : Constant\nBit rate : 128 Kbps\nChannel(s) : 2 channels\nSampling rate : 44.1 KHz\nCompression mode : Lossy\nStream size : 94.9 MiB (7%)\nAlignment : Split accross interleaves\nInterleave, duration : 33 ms (1.00 video frame)\nInterleave, preload duration : 500 ms\nWriting library : LAME3.99r\nEncoding settings : -m j -V 4 -q 3 -lowpass 17 -b 128\n\nScreens: &lt;a href=&quot;\nhttp://www.shotpix.com/images/91402078073090946171.png&quot; rel=&quot;nofollow&quot; target=&quot;_NEW&quot;&gt;\nhttp://www.shotpix.com/images/91402078073090946171.png&lt;/a&gt; &lt;a href=&quot;\nhttp://www.shotpix.com/images/41624214873276775813.png&quot; rel=&quot;nofollow&quot; target=&quot;_NEW&quot;&gt;\nhttp://www.shotpix.com/images/41624214873276775813.png&lt;/a&gt; &lt;a href=&quot;\nhttp://www.shotpix.com/images/59094742011526396985.png&quot; rel=&quot;nofollow&quot; target=&quot;_NEW&quot;&gt;\nhttp://www.shotpix.com/images/59094742011526396985.png&lt;/a&gt; &lt;a href=&quot;\nhttp://www.shotpix.com/images/65545700828059658837.png&quot; rel=&quot;nofollow&quot; target=&quot;_NEW&quot;&gt;\nhttp://www.shotpix.com/images/65545700828059658837.png&lt;/a&gt; &lt;a href=&quot;\nhttp://www.shotpix.com/images/85651217044123717384.png&quot; rel=&quot;nofollow&quot; target=&quot;_NEW&quot;&gt;\nhttp://www.shotpix.com/images/85651217044123717384.png&lt;/a&gt; &lt;a href=&quot;\nhttp://www.shotpix.com/images/69216636333370716750.png&quot; rel=&quot;nofollow&quot; target=&quot;_NEW&quot;&gt;\nhttp://www.shotpix.com/images/69216636333370716750.png&lt;/a&gt;\n\n\n\n\n","torrent":{"xt":"urn:btih:e0f0bc604ec699b2b65b00027a543cc5c13850f2","amp;dn":"Gangster+Squad+2012+TS+XviD+Mp3+-+ADTRG","amp;tr":["udp%3A%2F%2Ftracker.openbittorrent.com%3A80","udp%3A%2F%2Fopen.demonii.com%3A1337","udp%3A%2F%2Ftracker.coppersurfer.tk%3A6969","udp%3A%2F%2Fexodus.desync.com%3A6969"],"infoHash":"e0f0bc604ec699b2b65b00027a543cc5c13850f2","infoHashBuffer":{"type":"Buffer","data":[224,240,188,96,78,198,153,178,182,91,0,2,122,84,60,197,193,56,80,242]},"announce":[],"urlList":[]}}